<?xml version="1.0" encoding="UTF-8" standalone="no"?>
<!-- Created with Inkscape (http://www.inkscape.org/) -->

<svg
   xmlns:dc="http://purl.org/dc/elements/1.1/"
   xmlns:cc="http://creativecommons.org/ns#"
   xmlns:rdf="http://www.w3.org/1999/02/22-rdf-syntax-ns#"
   xmlns:svg="http://www.w3.org/2000/svg"
   xmlns="http://www.w3.org/2000/svg"
   xmlns:xlink="http://www.w3.org/1999/xlink"
   version="1.1"
   width="846"
   height="591"
   viewBox="0 0 846 591"
   id="svg2">
  <title
     id="title4">fig/gateway_firewall.fig</title>
  <desc
     id="desc6">Converted by fig2vect, see http://fig2vect.sourceforge.net</desc>
  <metadata
     id="metadata5199">
    <rdf:RDF>
      <cc:Work
         rdf:about="">
        <dc:format>image/svg+xml</dc:format>
        <dc:type
           rdf:resource="http://purl.org/dc/dcmitype/StillImage" />
        <dc:title>fig/gateway_firewall.fig</dc:title>
      </cc:Work>
    </rdf:RDF>
  </metadata>
  <defs
     id="defs5197" />
  <use
     transform="translate(0,431.8326)"
     id="use4760"
     x="0"
     y="0"
     width="846"
     height="591"
     xlink:href="#g4720" />
  <use
     transform="translate(0,216.39576)"
     id="use4758"
     x="0"
     y="0"
     width="846"
     height="591"
     xlink:href="#g4720" />
  <g
     id="g4720">
    <rect
       width="108"
       height="90"
       x="9.75"
       y="0.75"
       id="rect28"
       style="fill:#dfe3df;stroke:#000000;stroke-width:1;stroke-linejoin:bevel" />
    <rect
       width="45"
       height="4.5"
       x="41.25"
       y="90.75"
       id="rect30"
       style="fill:#868286;stroke:#000000;stroke-width:1;stroke-linejoin:bevel" />
    <rect
       width="54"
       height="4.5"
       x="36.75"
       y="95.25"
       id="rect32"
       style="fill:#868286;stroke:#000000;stroke-width:1;stroke-linejoin:bevel" />
    <polygon
       points="126.75,153.75 126.75,158.25 0.75,158.25 0.75,153.75 14.25,131.25 113.25,131.25 "
       id="polygon34"
       style="fill:#dfe3df;stroke:#000000;stroke-width:1;stroke-linejoin:bevel" />
    <rect
       width="13.5"
       height="2.3399999"
       x="11.97"
       y="124.41"
       id="rect36"
       style="fill:#414141;stroke:#000000;stroke-width:1;stroke-linejoin:bevel" />
    <rect
       width="13.5"
       height="2.3399999"
       x="101.97"
       y="124.41"
       id="rect38"
       style="fill:#414141;stroke:#000000;stroke-width:1;stroke-linejoin:bevel" />
    <rect
       width="103.5"
       height="24.84"
       x="11.97"
       y="99.75"
       id="rect40"
       style="fill:#dfe3df;stroke:#000000;stroke-width:1;stroke-linejoin:bevel" />
    <rect
       width="9"
       height="72"
       x="86.25"
       y="9.75"
       id="rect182"
       style="fill:#545454;stroke:none" />
    <rect
       width="9"
       height="72"
       x="77.25"
       y="9.75"
       id="rect184"
       style="fill:#676767;stroke:none" />
    <rect
       width="13.5"
       height="72"
       x="63.75"
       y="9.75"
       id="rect186"
       style="fill:#7a7a7a;stroke:none" />
    <rect
       width="13.5"
       height="72"
       x="50.25"
       y="9.75"
       id="rect188"
       style="fill:#8d8d8d;stroke:none" />
    <rect
       width="9"
       height="72"
       x="41.25"
       y="9.75"
       id="rect190"
       style="fill:#a0a0a0;stroke:none" />
    <rect
       width="9"
       height="72"
       x="32.25"
       y="9.75"
       id="rect192"
       style="fill:#bcbcbc;stroke:none" />
    <rect
       width="9"
       height="72"
       x="23.25"
       y="9.75"
       id="rect194"
       style="fill:#bcbcbc;stroke:none" />
    <rect
       width="9"
       height="72"
       x="95.25"
       y="9.75"
       id="rect196"
       style="fill:#414141;stroke:none" />
    <polyline
       id="polyline198"
       points="0.75,153.75 0.75,158.25 126.75,158.25 126.75,153.75"
       class="cT"
       style="fill:#bec3be;stroke:#000000;stroke-width:1;stroke-linejoin:bevel" />
    <polygon
       points="90.75,149.25 86.25,135.75 18.75,135.75 9.75,149.25 "
       id="polygon200"
       style="fill:#ffffff;stroke:none" />
    <polygon
       points="95.25,149.25 117.75,149.25 108.75,135.75 90.75,135.75 "
       id="polygon202"
       style="fill:#ffffff;stroke:none" />
    <polyline
       id="polyline204"
       points="78.57,108.93 78.57,106.65 88.29,106.65 88.29,104.43 100.35,104.43"
       class="cB"
       style="fill:none;stroke:#868286;stroke-width:1;stroke-linejoin:bevel" />
    <polyline
       id="polyline206"
       points="88.29,113.43 88.29,108.93 100.35,108.93"
       class="cB"
       style="fill:none;stroke:#868286;stroke-width:1;stroke-linejoin:bevel" />
    <polyline
       id="polyline208"
       points="100.35,106.65 110.07,106.65"
       class="cB"
       style="fill:none;stroke:#868286;stroke-width:1;stroke-linejoin:bevel" />
    <polyline
       id="polyline210"
       points="100.35,104.43 100.35,106.65"
       class="cC"
       style="fill:none;stroke:#ffffff;stroke-width:1;stroke-linejoin:bevel" />
    <polyline
       id="polyline212"
       points="78.57,108.93 88.29,108.93"
       class="cC"
       style="fill:none;stroke:#ffffff;stroke-width:1;stroke-linejoin:bevel" />
    <polyline
       id="polyline214"
       points="88.29,113.43 100.35,113.43 100.35,108.93 110.07,108.93 110.07,106.65"
       class="cC"
       style="fill:none;stroke:#ffffff;stroke-width:1;stroke-linejoin:bevel" />
    <polyline
       id="polyline216"
       points="102.81,113.43 107.67,113.43 107.67,111.21"
       class="cB"
       style="fill:none;stroke:#868286;stroke-width:1;stroke-linejoin:bevel" />
    <polyline
       id="polyline218"
       points="102.81,113.43 102.81,111.21 107.67,111.21"
       class="cC"
       style="fill:none;stroke:#ffffff;stroke-width:1;stroke-linejoin:bevel" />
    <rect
       width="81"
       height="1.62"
       x="9.75"
       y="149.25"
       id="rect600"
       style="fill:#868286;stroke:none" />
    <polygon
       points="23.25,149.25 25.11,144.75 21.99,144.75 23.79,140.25 20.91,140.25 23.25,135.75 17.07,135.75 9.75,149.25 "
       id="polygon602"
       style="fill:#bec3be;stroke:none" />
    <polygon
       points="77.25,144.69 80.19,144.75 79.71,140.25 81.75,140.25 82.41,140.25 81.51,135.75 87.09,135.75 90.75,149.25 77.25,149.25 "
       id="polygon604"
       style="fill:#bec3be;stroke:none" />
    <polygon
       points="108.75,138.45 91.59,138.45 90.69,135.75 110.61,135.75 117.75,149.25 113.61,149.25 "
       id="polygon606"
       style="fill:#bec3be;stroke:none" />
    <rect
       width="22.5"
       height="1.5599999"
       x="95.25"
       y="149.25"
       id="rect608"
       style="fill:#868286;stroke:none" />
    <polygon
       points="90.63,137.07 90.69,135.81 95.25,149.31 95.19,150.93 "
       id="polygon610"
       style="fill:#868286;stroke:none" />
    <path
       d="m 18.75,9.75 c 0,0 0,0.05 0,0.96 0,0.92 0,2.71 0,5.7 0,2.98 0,7.17 0,12.27 0,5.09 0,11.07 0,17.07 0,6 0,11.98 0,17.07 0,5.1 0,9.29 0,12.27 0,2.99 0,4.78 0,5.7 0,0.91 0,0.96 0,0.96 0,0 0,0 0.06,-0.06 0.06,-0.06 0.17,-0.17 0.36,-0.36 0.18,-0.18 0.44,-0.44 0.76,-0.76 0.32,-0.32 0.7,-0.69 1.07,-1.07 0.38,-0.37 0.75,-0.75 1.07,-1.07 0.32,-0.32 0.58,-0.58 0.76,-0.76 0.19,-0.19 0.3,-0.3 0.36,-0.36 0.06,-0.06 0.06,-0.06 0.06,-0.06 0,0 0,-0.04 0,-0.84 0,-0.81 0,-2.37 0,-4.98 0,-2.62 0,-6.28 0,-10.74 0,-4.46 0,-9.69 0,-14.94 0,-5.25 0,-10.48 0,-14.94 0,-4.46 0,-8.12 0,-10.74 0,-2.61 0,-4.17 0,-4.98 0,-0.8 0,-0.84 0,-0.84 0,0 0,0 -0.06,-0.06 C 23.13,14.13 23.02,14.02 22.83,13.83 22.65,13.65 22.39,13.39 22.07,13.07 21.75,12.75 21.38,12.38 21,12 20.63,11.63 20.25,11.25 19.93,10.93 19.61,10.61 19.35,10.35 19.17,10.17 18.98,9.98 18.87,9.87 18.81,9.81 18.75,9.75 18.75,9.75 18.75,9.75 z"
       id="path732"
       style="fill:#bec3be;stroke:none" />
    <path
       d="m 18.75,81.75 c 0,0 0,0 0.06,-0.06 0.06,-0.06 0.17,-0.17 0.36,-0.36 0.18,-0.18 0.44,-0.44 0.76,-0.76 0.32,-0.32 0.7,-0.69 1.07,-1.07 0.38,-0.37 0.75,-0.75 1.07,-1.07 0.32,-0.32 0.58,-0.58 0.76,-0.76 0.19,-0.19 0.3,-0.3 0.36,-0.36 0.06,-0.06 0.06,-0.06 0.06,-0.06 0,0 0.03,0 0.55,0.02 0.53,0.03 1.56,0.07 3.28,0.15 1.71,0.07 4.12,0.18 7.05,0.3 2.93,0.13 6.37,0.28 9.82,0.43 3.45,0.15 6.89,0.3 9.82,0.43 2.93,0.12 5.34,0.23 7.05,0.3 1.72,0.08 2.75,0.12 3.28,0.15 0.52,0.02 0.55,0.02 0.55,0.02 0,0 0.03,0 0.53,-0.02 0.5,-0.03 1.49,-0.07 3.13,-0.15 1.64,-0.07 3.95,-0.18 6.75,-0.3 2.8,-0.13 6.09,-0.28 9.39,-0.43 3.3,-0.15 6.59,-0.3 9.39,-0.43 2.8,-0.12 5.11,-0.23 6.75,-0.3 1.64,-0.08 2.63,-0.12 3.13,-0.15 0.5,-0.02 0.53,-0.02 0.53,-0.02 0,0 0,0 0.06,0.06 0.06,0.06 0.17,0.17 0.36,0.36 0.18,0.18 0.44,0.44 0.76,0.76 0.32,0.32 0.7,0.7 1.07,1.07 0.38,0.38 0.75,0.75 1.07,1.07 0.32,0.32 0.58,0.58 0.76,0.76 0.19,0.19 0.3,0.3 0.36,0.36 0.06,0.06 0.06,0.06 0.06,0.06 0,0 -0.06,0 -1.2,0 -1.15,0 -3.39,0 -7.12,0 -3.73,0 -8.97,0 -15.34,0 -6.37,0 -13.84,0 -21.34,0 -7.5,0 -14.97,0 -21.34,0 -6.37,0 -11.61,0 -15.34,0 -3.73,0 -5.97,0 -7.12,0 -1.14,0 -1.2,0 -1.2,0 z"
       id="path734"
       style="fill:#ffffff;stroke:none" />
    <path
       d="m 108.75,9.75 c 0,0 0,0.05 0,0.96 0,0.92 0,2.71 0,5.7 0,2.98 0,7.17 0,12.27 0,5.09 0,11.07 0,17.07 0,6 0,11.98 0,17.07 0,5.1 0,9.29 0,12.27 0,2.99 0,4.78 0,5.7 0,0.91 0,0.96 0,0.96 0,0 0,0 -0.06,-0.06 -0.06,-0.06 -0.17,-0.17 -0.36,-0.36 -0.18,-0.18 -0.44,-0.44 -0.76,-0.76 -0.32,-0.32 -0.69,-0.69 -1.07,-1.07 -0.37,-0.37 -0.75,-0.75 -1.07,-1.07 -0.32,-0.32 -0.58,-0.58 -0.76,-0.76 -0.19,-0.19 -0.3,-0.3 -0.36,-0.36 -0.06,-0.06 -0.06,-0.06 -0.06,-0.06 0,0 0,-0.04 0,-0.84 0,-0.81 0,-2.37 0,-4.98 0,-2.62 0,-6.28 0,-10.74 0,-4.46 0,-9.69 0,-14.94 0,-5.25 0,-10.48 0,-14.94 0,-4.46 0,-8.12 0,-10.74 0,-2.61 0,-4.17 0,-4.98 0,-0.8 0,-0.84 0,-0.84 0,0 0,0 0.06,-0.06 0.06,-0.06 0.17,-0.17 0.36,-0.36 0.18,-0.18 0.44,-0.44 0.76,-0.76 0.32,-0.32 0.7,-0.69 1.07,-1.07 0.38,-0.37 0.75,-0.75 1.07,-1.07 0.32,-0.32 0.58,-0.58 0.76,-0.76 0.19,-0.19 0.3,-0.3 0.36,-0.36 0.06,-0.06 0.06,-0.06 0.06,-0.06 z"
       id="path736"
       style="fill:#bec3be;stroke:none" />
    <path
       d="m 18.75,9.75 c 0,0 0,0 0.06,0.06 0.06,0.06 0.17,0.17 0.36,0.36 0.18,0.18 0.44,0.44 0.76,0.76 0.32,0.32 0.7,0.7 1.07,1.07 0.38,0.38 0.75,0.75 1.07,1.07 0.32,0.32 0.58,0.58 0.76,0.76 0.19,0.19 0.3,0.3 0.36,0.36 0.06,0.06 0.06,0.06 0.06,0.06 0,0 0.03,0 0.55,-0.02 0.53,-0.03 1.56,-0.07 3.28,-0.15 1.71,-0.07 4.12,-0.18 7.05,-0.3 2.93,-0.13 6.37,-0.28 9.82,-0.43 3.45,-0.15 6.89,-0.3 9.82,-0.43 2.93,-0.12 5.34,-0.23 7.05,-0.3 1.72,-0.08 2.75,-0.12 3.28,-0.15 0.52,-0.02 0.55,-0.02 0.55,-0.02 0,0 0.03,0 0.53,0.02 0.5,0.03 1.49,0.07 3.13,0.15 1.64,0.07 3.95,0.18 6.75,0.3 2.8,0.13 6.09,0.28 9.39,0.43 3.3,0.15 6.59,0.3 9.39,0.43 2.8,0.12 5.11,0.23 6.75,0.3 1.64,0.08 2.63,0.12 3.13,0.15 0.5,0.02 0.53,0.02 0.53,0.02 0,0 0,0 0.06,-0.06 0.06,-0.06 0.17,-0.17 0.36,-0.36 0.18,-0.18 0.44,-0.44 0.76,-0.76 0.32,-0.32 0.7,-0.69 1.07,-1.07 0.38,-0.37 0.75,-0.75 1.07,-1.07 0.32,-0.32 0.58,-0.58 0.76,-0.76 0.19,-0.19 0.3,-0.3 0.36,-0.36 0.06,-0.06 0.06,-0.06 0.06,-0.06 0,0 -0.06,0 -1.2,0 -1.15,0 -3.39,0 -7.12,0 -3.73,0 -8.97,0 -15.34,0 -6.37,0 -13.84,0 -21.34,0 -7.5,0 -14.97,0 -21.34,0 -6.37,0 -11.61,0 -15.34,0 -3.73,0 -5.97,0 -7.12,0 -1.14,0 -1.2,0 -1.2,0 z"
       id="path738"
       style="fill:#868286;stroke:none" />
  </g>
  <path
     d="m 505.5,265.5 c 0.26,-1.63 0.28,-3.34 0.1,-5.15 -0.18,-1.81 -0.55,-3.71 -1.08,-5.7 -0.52,-2 -1.2,-4.07 -1.97,-6.18 -0.77,-2.1 -1.63,-4.24 -2.51,-6.35 -0.87,-2.1 -1.76,-4.16 -2.58,-6.13 -0.82,-1.96 -1.57,-3.81 -2.19,-5.52 -0.62,-1.72 -1.11,-3.28 -1.41,-4.69 -0.31,-1.41 -0.45,-2.66 -0.36,-3.78 0.09,-1.12 0.39,-2.1 0.9,-3 0.51,-0.9 1.22,-1.71 2.13,-2.47 0.9,-0.75 1.99,-1.44 3.23,-2.1 1.24,-0.65 2.63,-1.27 4.09,-1.87 1.47,-0.6 3.01,-1.17 4.57,-1.76 1.55,-0.58 3.11,-1.16 4.62,-1.78 1.51,-0.61 2.97,-1.25 4.34,-1.95 1.38,-0.7 2.67,-1.46 3.87,-2.32 1.2,-0.86 2.33,-1.82 3.42,-2.89 1.09,-1.07 2.16,-2.23 3.22,-3.48 1.07,-1.24 2.13,-2.55 3.22,-3.89 1.08,-1.34 2.18,-2.7 3.31,-4.01 1.12,-1.32 2.27,-2.59 3.45,-3.76 1.18,-1.16 2.39,-2.23 3.64,-3.14 1.26,-0.92 2.55,-1.69 3.91,-2.29 1.36,-0.6 2.78,-1.03 4.33,-1.29 1.55,-0.26 3.22,-0.34 5.06,-0.29 1.84,0.04 3.84,0.21 6,0.46 2.17,0.25 4.5,0.57 6.95,0.91 2.46,0.34 5.04,0.69 7.68,0.98 2.63,0.3 5.32,0.54 8,0.66 2.67,0.12 5.33,0.11 7.91,-0.06 2.59,-0.17 5.1,-0.51 7.54,-1.06 2.43,-0.56 4.79,-1.32 7.11,-2.35 2.32,-1.03 4.61,-2.33 6.94,-3.89 2.33,-1.56 4.7,-3.37 7.1,-5.4 2.41,-2.02 4.87,-4.25 7.35,-6.59 2.47,-2.35 4.97,-4.81 7.44,-7.27 2.48,-2.45 4.92,-4.9 7.3,-7.22 2.38,-2.32 4.7,-4.52 6.92,-6.49 2.22,-1.98 4.36,-3.73 6.42,-5.23 2.06,-1.49 4.05,-2.71 6.03,-3.66 1.98,-0.95 3.95,-1.61 5.99,-2.05 2.04,-0.44 4.16,-0.64 6.39,-0.66 2.23,-0.01 4.58,0.18 7.04,0.52 2.47,0.33 5.06,0.82 7.74,1.4 2.69,0.57 5.48,1.23 8.33,1.91 2.86,0.68 5.78,1.37 8.76,2.01 2.97,0.64 6,1.23 9.11,1.73 3.11,0.49 6.29,0.88 9.64,1.14 3.35,0.26 6.89,0.38 10.63,0.42 3.73,0.05 7.68,0.01 11.76,-0.06 4.08,-0.06 8.3,-0.15 12.53,-0.21 4.23,-0.05 8.46,-0.07 12.52,0.01 4.07,0.09 7.96,0.27 11.53,0.6 3.57,0.34 6.82,0.83 9.64,1.51 2.83,0.68 5.23,1.55 7.17,2.66 1.95,1.1 3.44,2.44 4.47,4.07 1.03,1.63 1.61,3.57 1.83,5.83 0.22,2.27 0.08,4.86 -0.33,7.76 -0.4,2.89 -1.08,6.1 -1.91,9.54 -0.82,3.44 -1.8,7.11 -2.8,10.89 -0.99,3.77 -2,7.66 -2.87,11.51 -0.88,3.85 -1.63,7.67 -2.13,11.36 -0.5,3.7 -0.75,7.26 -0.66,10.65 0.09,3.39 0.51,6.62 1.37,9.71 0.86,3.09 2.16,6.07 3.83,9.02 1.68,2.95 3.73,5.87 6.08,8.8 2.34,2.92 4.97,5.85 7.73,8.77 2.77,2.91 5.67,5.82 8.53,8.68 2.85,2.87 5.66,5.68 8.23,8.43 2.57,2.75 4.91,5.42 6.88,8.02 1.97,2.6 3.57,5.12 4.71,7.61 1.15,2.48 1.84,4.93 2.01,7.42 0.17,2.49 -0.17,5.04 -1.01,7.67 -0.83,2.63 -2.15,5.33 -3.92,8.08 -1.78,2.75 -4,5.53 -6.59,8.27 -2.59,2.74 -5.54,5.44 -8.72,7.99 -3.18,2.54 -6.58,4.94 -10.05,7.1 -3.46,2.15 -6.99,4.07 -10.44,5.7 -3.45,1.62 -6.83,2.96 -10.05,4 -3.22,1.03 -6.3,1.76 -9.22,2.19 -2.92,0.43 -5.7,0.56 -8.43,0.47 -2.73,-0.09 -5.41,-0.39 -8.06,-0.83 -2.65,-0.44 -5.27,-1 -7.85,-1.6 -2.59,-0.59 -5.14,-1.21 -7.62,-1.73 -2.49,-0.53 -4.91,-0.96 -7.25,-1.18 -2.34,-0.23 -4.6,-0.26 -6.78,0 -2.19,0.27 -4.29,0.82 -6.36,1.73 -2.06,0.91 -4.09,2.17 -6.15,3.89 -2.06,1.72 -4.17,3.9 -6.38,6.49 -2.21,2.59 -4.53,5.6 -6.96,8.92 -2.44,3.32 -4.99,6.95 -7.63,10.72 -2.65,3.78 -5.38,7.69 -8.15,11.52 -2.78,3.83 -5.59,7.58 -8.38,11.04 -2.78,3.45 -5.55,6.62 -8.27,9.33 -2.71,2.71 -5.37,4.98 -7.98,6.71 -2.61,1.72 -5.17,2.92 -7.75,3.52 -2.58,0.6 -5.18,0.61 -7.89,0.14 -2.7,-0.48 -5.51,-1.44 -8.44,-2.79 -2.93,-1.34 -5.98,-3.07 -9.12,-5.03 -3.15,-1.95 -6.39,-4.13 -9.67,-6.34 -3.28,-2.21 -6.6,-4.45 -9.89,-6.53 -3.3,-2.07 -6.56,-3.98 -9.77,-5.56 -3.21,-1.58 -6.36,-2.83 -9.46,-3.64 -3.11,-0.8 -6.17,-1.17 -9.26,-1 -3.09,0.17 -6.24,0.88 -9.49,2.07 -3.25,1.18 -6.61,2.83 -10.07,4.87 -3.46,2.04 -7.01,4.46 -10.61,7.12 -3.59,2.67 -7.22,5.57 -10.79,8.52 -3.57,2.95 -7.07,5.96 -10.42,8.81 -3.36,2.86 -6.55,5.57 -9.55,7.98 -2.99,2.41 -5.78,4.53 -8.37,6.24 -2.58,1.71 -4.97,3.03 -7.2,3.89 -2.23,0.86 -4.33,1.26 -6.36,1.25 -2.03,-0.01 -3.99,-0.44 -5.93,-1.27 -1.93,-0.82 -3.84,-2.04 -5.72,-3.6 -1.88,-1.56 -3.74,-3.45 -5.57,-5.58 -1.84,-2.13 -3.65,-4.5 -5.43,-6.98 -1.79,-2.48 -3.54,-5.07 -5.29,-7.67 -1.75,-2.6 -3.49,-5.2 -5.25,-7.73 -1.77,-2.54 -3.56,-5.01 -5.45,-7.42 -1.89,-2.41 -3.89,-4.76 -6,-7.11 -2.11,-2.35 -4.33,-4.71 -6.63,-7.09 -2.29,-2.37 -4.65,-4.76 -7,-7.14 -2.35,-2.38 -4.68,-4.76 -6.9,-7.08 -2.21,-2.32 -4.31,-4.59 -6.19,-6.78 -1.89,-2.19 -3.56,-4.29 -4.97,-6.29 -1.41,-2 -2.55,-3.9 -3.39,-5.73 -0.85,-1.82 -1.41,-3.56 -1.67,-5.28 -0.26,-1.72 -0.22,-3.42 0.12,-5.15 0.33,-1.72 0.95,-3.47 1.86,-5.25 0.91,-1.78 2.1,-3.59 3.54,-5.41 1.44,-1.81 3.12,-3.63 4.99,-5.42 1.87,-1.79 3.92,-3.55 6.07,-5.24 2.14,-1.69 4.38,-3.32 6.64,-4.87 2.26,-1.54 4.54,-3.01 6.8,-4.4 2.26,-1.4 4.5,-2.72 6.73,-4.01 2.23,-1.29 4.47,-2.55 6.74,-3.83 2.27,-1.28 4.57,-2.57 6.86,-3.9 2.3,-1.34 4.6,-2.7 6.83,-4.11 2.24,-1.41 4.4,-2.86 6.43,-4.33 2.02,-1.47 3.91,-2.96 5.58,-4.47 1.67,-1.5 3.14,-3.02 4.36,-4.53 1.23,-1.52 2.22,-3.05 2.96,-4.59 0.74,-1.54 1.23,-3.11 1.49,-4.74 z"
     id="path12"
     style="fill:none;stroke:#000000;stroke-width:1" />
  <text
     x="639.75"
     y="270.75"
     id="text14"
     style="font-size:32.79000092px;font-style:normal;font-weight:bold;text-anchor:middle;fill:#000000;font-family:'Helvetica, sans-serif'">WAN</text>
  <g
     id="g5971">
    <path
       d="m 120.43273,111.97543 97.42873,0 0,437.07609 -96.07555,0"
       id="path5201"
       style="fill:none;stroke:#000000;stroke-width:4.5;stroke-linecap:butt;stroke-linejoin:miter;stroke-miterlimit:4;stroke-opacity:1;stroke-dasharray:none" />
    <polyline
       transform="matrix(1.7985167,0,0,1,-270.09827,0)"
       style="fill:none;stroke:#000000;stroke-width:3.35548472"
       id="polyline22"
       points="216.75,329.25 338.25,329.25" />
    <circle
       cx="216.75"
       cy="329.25"
       r="10.08"
       transform="translate(1.446499,0)"
       id="circle16"
       style="fill:#000000;stroke:#000000;stroke-width:4.5" />
  </g>
  <text
     x="387.75"
     y="149.25"
     id="text24"
     style="font-size:27.32999992px;font-style:normal;font-weight:bold;text-anchor:middle;fill:#000000;font-family:'Helvetica, sans-serif'">Firewall</text>
  <text
     x="239.25"
     y="306.75"
     id="text26"
     style="font-size:27.32999992px;font-style:normal;font-weight:bold;text-anchor:start;fill:#000000;font-family:'Helvetica, sans-serif'">LAN</text>
  <rect
     width="38.459999"
     height="9.2399998"
     x="643.89001"
     y="330.03"
     id="rect124"
     style="fill:#dfe3df;stroke:#000000;stroke-width:1;stroke-linejoin:bevel" />
  <rect
     width="38.459999"
     height="9.2399998"
     x="585.39001"
     y="334.53"
     id="rect180"
     style="fill:#dfe3df;stroke:#000000;stroke-width:1;stroke-linejoin:bevel" />
  <polyline
     class="cD"
     points="549.75,383.25 585.75,338.25"
     id="polyline820"
     style="fill:none;stroke:#000000;stroke-width:1.79999995" />
  <polyline
     class="cD"
     points="621.75,338.25 644.25,333.75"
     id="polyline822"
     style="fill:none;stroke:#000000;stroke-width:1.79999995" />
  <polyline
     class="cD"
     points="680.25,333.75 729.75,297.75"
     id="polyline824"
     style="fill:none;stroke:#000000;stroke-width:1.79999995" />
  <polyline
     class="cD"
     points="729.75,297.75 671.25,225.75"
     id="polyline826"
     style="fill:none;stroke:#000000;stroke-width:1.79999995" />
  <polyline
     class="cD"
     points="707.25,230.25 671.25,225.75"
     id="polyline828"
     style="fill:none;stroke:#000000;stroke-width:1.79999995" />
  <polyline
     class="cD"
     points="630.75,221.25 581.25,230.25"
     id="polyline830"
     style="fill:none;stroke:#000000;stroke-width:1.79999995" />
  <polyline
     class="cD"
     points="527.25,297.75 410.25,306.75"
     id="polyline832"
     style="fill:none;stroke:#000000;stroke-width:1.79999995" />
  <polyline
     class="cD"
     points="585.75,338.25 563.25,297.75"
     id="polyline834"
     style="fill:none;stroke:#000000;stroke-width:1.79999995" />
  <polyline
     class="cQ"
     points="339.51,237.27 339.51,412.23 373.17,412.23 406.89,368.49 406.89,215.49"
     id="polyline836"
     style="fill:#d10000;stroke:#000000;stroke-width:1" />
  <polyline
     class="cP"
     points="322.71,215.49 322.71,237.27 390.09,237.27 423.75,193.53 423.75,171.75 356.37,171.75 322.71,215.49"
     id="polyline838"
     style="fill:#aeaaae;stroke:#000000;stroke-width:1" />
  <polyline
     class="cA"
     points="373.17,412.23 373.17,237.27"
     id="polyline840"
     style="fill:none;stroke:#000000;stroke-width:1" />
  <polyline
     class="cA"
     points="390.09,237.27 390.09,215.49 322.71,215.49"
     id="polyline842"
     style="fill:none;stroke:#000000;stroke-width:1" />
  <polyline
     class="cA"
     points="390.09,215.49 423.75,171.75"
     id="polyline844"
     style="fill:none;stroke:#000000;stroke-width:1" />
  <polyline
     class="cA"
     points="339.51,281.07 373.17,281.07 406.89,237.27"
     id="polyline846"
     style="fill:none;stroke:#000000;stroke-width:1" />
  <polyline
     class="cA"
     points="339.51,324.69 373.17,324.69 406.89,281.07"
     id="polyline848"
     style="fill:none;stroke:#000000;stroke-width:1" />
  <polyline
     class="cA"
     points="339.51,368.49 373.17,368.49 406.89,324.69"
     id="polyline850"
     style="fill:none;stroke:#000000;stroke-width:1" />
  <polyline
     class="cA"
     points="390.09,390.45 390.09,346.71"
     id="polyline852"
     style="fill:none;stroke:#000000;stroke-width:1" />
  <polyline
     class="cA"
     points="390.09,302.91 390.09,259.29"
     id="polyline854"
     style="fill:none;stroke:#000000;stroke-width:1" />
  <polyline
     class="cA"
     points="356.37,237.27 356.37,281.07"
     id="polyline856"
     style="fill:none;stroke:#000000;stroke-width:1" />
  <polyline
     class="cA"
     points="356.37,324.69 356.37,368.49"
     id="polyline858"
     style="fill:none;stroke:#000000;stroke-width:1" />
  <use
     transform="translate(87.789616,-8.9536673)"
     id="use4764"
     x="0"
     y="0"
     width="846"
     height="591"
     xlink:href="#use4762" />
  <use
     transform="translate(167.06233,0.21838213)"
     id="use4766"
     x="0"
     y="0"
     width="846"
     height="591"
     xlink:href="#use4762" />
  <use
     transform="translate(-15.723513,67.69846)"
     id="use4768"
     x="0"
     y="0"
     width="846"
     height="591"
     xlink:href="#use4762" />
  <use
     transform="translate(184.96966,67.69846)"
     id="use4770"
     x="0"
     y="0"
     width="846"
     height="591"
     xlink:href="#use4762" />
  <use
     transform="translate(42.802897,108.31754)"
     id="use4772"
     x="0"
     y="0"
     width="846"
     height="591"
     xlink:href="#use4762" />
  <use
     transform="translate(101.11092,103.94989)"
     id="use4774"
     x="0"
     y="0"
     width="846"
     height="591"
     xlink:href="#use4762" />
  <use
     transform="translate(-33.630848,153.30426)"
     id="use4776"
     x="0"
     y="0"
     width="846"
     height="591"
     xlink:href="#use4762" />
  <use
     transform="matrix(0.37113297,0,0,0.37113297,538.27371,189.08892)"
     id="use4762"
     x="0"
     y="0"
     width="846"
     height="591"
     xlink:href="#g4720" />
</svg>
